<svg id="Calque_1" data-name="Calque 1" xmlns="http://www.w3.org/2000/svg" xmlns:xlink="http://www.w3.org/1999/xlink" width="1000" height="1000" viewBox="0 0 1000 1000"><defs><style>.cls-1{fill:#fff;}.cls-2{fill:#fff;}.cls-3{fill:#fff;}.cls-4{fill:#fff;}</style><linearGradient id="Dégradé_sans_nom_16" x1="155.72" y1="329.53" x2="401.74" y2="329.53" gradientUnits="userSpaceOnUse"><stop offset="0" stop-color="#cd5327"/><stop offset="0.5" stop-color="#e7842c"/><stop offset="1" stop-color="#f5bd6e"/></linearGradient></defs><path class="cls-1" d="M276.83,589.88c27.17-5.82,83.27-40.49,83.27-110.52,0-68.32-61-75.7-87.18-75.7h-104l-56,291.64h17.76L184.07,417H265.3c22.77,0,75.73,6.46,75.73,66.31,0,60-48.28,89.81-71.65,94.82-17.13,3.67-68.24,4-81.9,4l-2.36,12.49C200.14,594.61,256.76,594.19,276.83,589.88Z"/><path class="cls-2" d="M169.53,631.76l3.51-18h0l13.62-69.49,20.42-108.58h52.1c10.51,0,49,1.78,52.69,28.42s-2.66,53.58-14.8,71.78S262,564.75,235.88,564.75H190.76l-2.43,12.85c14.66,0,63.95-.43,80.09-3.89,22.21-4.76,68.07-33.11,68.07-90.38,0-55.75-49.79-61.77-71.19-61.77H187.82L135.3,695.3h21.85l12.38-63.52h0Z"/><path class="cls-3" d="M278.92,386.4H149.4L90.13,695.3H108.3l56.83-296.18H272.92c27.58,0,91.72,7.82,91.72,80.24,0,72.8-58.52,108.89-86.86,115-21.2,4.55-79.71,4.86-93.52,4.87l-2.75,14.55c21.92-.1,80.38-.84,102.51-5.58,27.48-5.88,98.91-44,98.91-131.09S300.9,386.4,278.92,386.4Z"/><path class="cls-1" d="M803.77,589.88C830.94,584.06,887,549.39,887,479.36c0-68.32-61-75.7-87.18-75.7h-104l-56,291.64h17.76L711,417h81.23C815,417,868,423.48,868,483.33c0,60-48.28,89.81-71.66,94.82-17.12,3.67-68.23,4-81.89,4l-2.36,12.49C727.08,594.61,783.7,594.19,803.77,589.88Z"/><path class="cls-2" d="M696.47,631.76l3.51-18h0l13.63-69.49,20.42-108.58h52.1c10.51,0,49,1.78,52.69,28.42s-2.66,53.58-14.8,71.78-35.12,28.86-61.22,28.86H717.7l-2.43,12.85c14.66,0,64-.43,80.09-3.89,22.21-4.76,68.07-33.11,68.07-90.38,0-55.75-49.79-61.77-71.19-61.77H714.76L662.24,695.3h21.85l12.38-63.52h0Z"/><path class="cls-3" d="M805.86,386.4H676.34L617.07,695.3h18.17l56.82-296.18h107.8c27.58,0,91.72,7.82,91.72,80.24,0,72.8-58.52,108.89-86.86,115-21.2,4.55-79.71,4.86-93.52,4.87l-2.75,14.55c21.92-.1,80.38-.84,102.51-5.58,27.48-5.88,98.91-44,98.91-131.09S827.84,386.4,805.86,386.4Z"/><polygon class="cls-3" points="436.77 304.7 376.58 614.63 395.21 614.63 455.4 304.7 436.77 304.7"/><polygon class="cls-1" points="460.03 304.7 399.84 614.63 417.3 614.63 477.49 304.7 460.03 304.7"/><polygon class="cls-2" points="487.68 386.4 503.47 304.7 482.12 304.7 421.93 614.63 443.18 614.63 475.39 451.26 487.72 386.4 487.68 386.4"/><path class="cls-1" d="M540.52,418.27c1.59,0,39,0,50.54,17.36,10.46,15.79,7.87,28.92,2.18,57.7-.58,2.94-1.2,6.06-1.84,9.38-4.49,23.19-15.5,77.19-22.6,111.92h18.51c7.11-34,16.89-81.18,22-107.77q1.21-6.27,2.33-11.84c7.11-36,10.05-50.84-2-69-12.87-19.41-58.12-19.62-59.48-19.62h-58l-2.18,11.87Z"/><path class="cls-2" d="M534.21,437.47c42.92,0,37.94,22.15,34.38,41.49s-27,135.67-27,135.67h22.55c7.1-34.68,18.26-89.41,22.78-112.79.64-3.32,1.26-6.44,1.85-9.39,5.6-28.35,7.92-40.08-1.51-54.31-10-15.16-45.57-15.33-46.73-15.33H489.21l-2.69,14.66Z"/><path class="cls-3" d="M630.26,411.57c-16.87-25.46-74.89-25.17-74.89-25.17H495.91l-2.84,15.46h57.09c2,0,49,0,63.3,21.65,13.07,19.72,9.81,36.22,2.66,72.39q-1.1,5.57-2.32,11.82c-5.1,26.37-14.76,73-21.85,106.91h17.74s9.92-47.36,20.57-102.42S647.14,437,630.26,411.57Z"/><path class="cls-4" d="M155.72,352.23l8.85-46.13H191.2l-.76,3.93h-22.1l-3.08,16H185l-.74,3.86H164.52L161,348.3h23.83l-.76,3.93Zm50.82-14.56q-1.8,1.74-3.63,3.66t-3.55,3.77q-1.71,1.86-3.2,3.76c-1,1.27-1.84,2.39-2.54,3.37h-4.49a112.87,112.87,0,0,1,7.71-9.4q4-4.31,8-8.46l-8.45-16.56h5.06l6.5,13,11.48-13h4.72l-14.53,16.38c.73,1.21,1.51,2.52,2.34,3.95s1.65,2.9,2.46,4.43,1.58,3.11,2.3,4.75,1.35,3.28,1.89,4.91H214c-.34-1-.78-2.06-1.31-3.23s-1.14-2.4-1.8-3.67-1.38-2.58-2.13-3.89S207.25,338.87,206.54,337.67Zm30.34-19.86h13.71l-.7,3.67H236.17l-3.51,18.3a18.68,18.68,0,0,0-.42,4.76,5.51,5.51,0,0,0,.89,2.83,3.55,3.55,0,0,0,2,1.33A11.43,11.43,0,0,0,238,349a13.72,13.72,0,0,0,4.51-.63,24.37,24.37,0,0,0,2.82-1.16l.38,3.59a19.2,19.2,0,0,1-3.53,1.37,17.49,17.49,0,0,1-5.2.76,13.8,13.8,0,0,1-5.2-.83,5.89,5.89,0,0,1-3-2.53,8.7,8.7,0,0,1-1-4.23,29.89,29.89,0,0,1,.62-6l6.08-31.68,4.48-.8Zm33.54-.66a22.53,22.53,0,0,1,4,.33,10.72,10.72,0,0,1,2.5.67l-1.58,3.72a9,9,0,0,0-2.06-.56A23.66,23.66,0,0,0,269,321a21.25,21.25,0,0,0-4.57.4,15.58,15.58,0,0,0-2.35.66l-5.79,30.16H252l6.3-32.82a38.77,38.77,0,0,1,4.88-1.5A30.45,30.45,0,0,1,270.42,317.15ZM278.11,335a25,25,0,0,1,2.82-7.89,22.34,22.34,0,0,1,4.47-5.62,17.5,17.5,0,0,1,5.44-3.37,16.27,16.27,0,0,1,5.77-1.09q6.31,0,9.29,4.12t1.32,12.72c-.07.35-.15.71-.24,1.06s-.18.69-.29,1H282.53q-1,6.33,1.26,9.72t8.67,3.39a20.36,20.36,0,0,0,5.72-.66,27.5,27.5,0,0,0,3.21-1.13l.08,3.73a22.24,22.24,0,0,1-3.73,1.26,23.63,23.63,0,0,1-6.17.73,18.08,18.08,0,0,1-7.46-1.33,10.56,10.56,0,0,1-4.55-3.73,12,12,0,0,1-1.9-5.69A26,26,0,0,1,278.11,335Zm25-2.73q.9-5.38-.92-8.39c-1.22-2-3.29-3-6.22-3a10.22,10.22,0,0,0-4.34.93,13.65,13.65,0,0,0-3.67,2.5,15.28,15.28,0,0,0-2.83,3.62,17.74,17.74,0,0,0-1.73,4.33ZM319.72,319q2-.52,5.26-1.2a41.68,41.68,0,0,1,8.15-.66q6.53,0,8.72,3.79.39-.26,1.47-.9a23.45,23.45,0,0,1,2.68-1.29,22.5,22.5,0,0,1,3.65-1.14,20.07,20.07,0,0,1,4.45-.46,13.4,13.4,0,0,1,6.13,1.16,6.76,6.76,0,0,1,3.14,3.27,11.56,11.56,0,0,1,.83,5,42.3,42.3,0,0,1-.76,6.39l-3.7,19.24h-4.32l3.42-17.84a50.3,50.3,0,0,0,.83-5.89,10.2,10.2,0,0,0-.4-4.13,4.42,4.42,0,0,0-2.09-2.46,8.66,8.66,0,0,0-4.17-.83,17.93,17.93,0,0,0-3.7.36,19.16,19.16,0,0,0-3,.9,15.14,15.14,0,0,0-2.17,1.07c-.58.35-1,.62-1.25.79a18.77,18.77,0,0,1,.15,3.9,35.48,35.48,0,0,1-.57,4.56l-3.76,19.57h-4.33l3.43-17.84a52.53,52.53,0,0,0,.83-5.89,9.8,9.8,0,0,0-.44-4.13,4.54,4.54,0,0,0-2.16-2.46,9.15,9.15,0,0,0-4.33-.83,37.28,37.28,0,0,0-5.36.33,15.57,15.57,0,0,0-2.88.6l-5.8,30.22h-4.32ZM372,335a25.25,25.25,0,0,1,2.81-7.89,22.59,22.59,0,0,1,4.48-5.62,17.46,17.46,0,0,1,5.43-3.37,16.32,16.32,0,0,1,5.77-1.09q6.33,0,9.3,4.12t1.32,12.72c-.07.35-.15.71-.24,1.06s-.19.69-.29,1H376.45q-1,6.33,1.27,9.72t8.66,3.39a20.31,20.31,0,0,0,5.72-.66,27.81,27.81,0,0,0,3.22-1.13l.08,3.73a22.44,22.44,0,0,1-3.74,1.26,23.5,23.5,0,0,1-6.16.73,18.13,18.13,0,0,1-7.47-1.33,10.53,10.53,0,0,1-4.54-3.73,12,12,0,0,1-1.91-5.69A26.42,26.42,0,0,1,372,335ZM397,332.26c.6-3.59.3-6.39-.92-8.39s-3.28-3-6.21-3a10.22,10.22,0,0,0-4.34.93,13.49,13.49,0,0,0-3.67,2.5,15,15,0,0,0-2.83,3.62,17.35,17.35,0,0,0-1.73,4.33Z"/></svg>