<svg id="Calque_1" data-name="Calque 1" xmlns="http://www.w3.org/2000/svg" viewBox="0 0 512.63 981.39"><defs><style>.cls-1{fill:#cd5327;}.cls-2{fill:#f5bd6e;}.cls-3{fill:#e7842c;}</style></defs><path class="cls-1" d="M97.94-876.79H-155.84v-500l24.63,1v474.36H97.94A71.63,71.63,0,0,0,169.48-973a71.62,71.62,0,0,0-71.54-71.54A71.63,71.63,0,0,0,26.39-973v52.54H1.76V-973a96.29,96.29,0,0,1,96.18-96.18A96.29,96.29,0,0,1,194.12-973,96.29,96.29,0,0,1,97.94-876.79Z" transform="translate(238.26 1404.91)"/><path class="cls-2" d="M97.94-837.75H-197.61v-567.16H-173v542.53H97.94A110.71,110.71,0,0,0,208.52-973,110.7,110.7,0,0,0,97.94-1083.55,110.71,110.71,0,0,0-12.65-973v52.54H-37.28V-973c0-74.56,60.66-135.22,135.22-135.22S233.16-1047.53,233.16-973,172.5-837.75,97.94-837.75Z" transform="translate(238.26 1404.91)"/><path class="cls-3" d="M97.94-796.54l-336.2,0v-589.21l24.63,1v563.61H97.94c83.7,0,151.79-68.1,151.79-151.8s-68.09-151.79-151.79-151.79S-53.85-1056.66-53.85-973v52.54H-78.49V-973c0-97.28,79.15-176.42,176.43-176.42S274.37-1070.25,274.37-973,195.22-796.54,97.94-796.54Z" transform="translate(238.26 1404.91)"/><path class="cls-3" d="M-66.17-479.91h0a12.33,12.33,0,0,1-12.32-12.32V-781.62h24.64v289.39A12.33,12.33,0,0,1-66.17-479.91Z" transform="translate(238.26 1404.91)"/><path class="cls-1" d="M14.08-479.91h0A12.32,12.32,0,0,1,1.76-492.23V-781.62H26.39v289.39A12.32,12.32,0,0,1,14.08-479.91Z" transform="translate(238.26 1404.91)"/><path class="cls-2" d="M-25-423.52h0a12.32,12.32,0,0,1-12.32-12.32V-781.62h24.63v345.78A12.32,12.32,0,0,1-25-423.52Z" transform="translate(238.26 1404.91)"/></svg>