<svg id="Calque_1" data-name="Calque 1" xmlns="http://www.w3.org/2000/svg" viewBox="0 0 291.02 1197.35"><defs><style>.cls-1{fill:#f5bd6e;}.cls-2{fill:#e7842c;}.cls-3{fill:#cd5327;}</style></defs><path class="cls-1" d="M1460,362.2H1353.78a103.79,103.79,0,0,1-103.67-103.68V-568.7a103.79,103.79,0,0,1,103.67-103.67H1460v25H1353.78a78.76,78.76,0,0,0-78.67,78.67V258.52a78.77,78.77,0,0,0,78.67,78.68H1460Z" transform="translate(-1168.98 752.5)"/><path class="cls-2" d="M1460,403.93H1349.33c-77,0-139.69-62.66-139.69-139.69V-573.89c0-77,62.66-139.7,139.69-139.7H1460v25H1349.33a114.82,114.82,0,0,0-114.69,114.7V264.24a114.82,114.82,0,0,0,114.69,114.69H1460Z" transform="translate(-1168.98 752.5)"/><path class="cls-3" d="M1460,444.85H1336.26c-92.24,0-167.28-75-167.28-167.28V-585.22c0-92.24,75-167.28,167.28-167.28H1460v25H1336.26c-78.45,0-142.28,63.83-142.28,142.28V277.57c0,78.45,63.83,142.28,142.28,142.28H1460Z" transform="translate(-1168.98 752.5)"/></svg>