<svg id="Calque_1" data-name="Calque 1" xmlns="http://www.w3.org/2000/svg" viewBox="0 0 990.66 825.99"><defs><style>.cls-1{fill:#cd5327;}.cls-2{fill:#e7842c;}.cls-3{fill:#f5bd6e;}</style></defs><path class="cls-1" d="M-460,1098v-35.35l344.43-344.44V960.86L415.86,429.43a12.51,12.51,0,0,1,17.68,0h0a12.51,12.51,0,0,1,0,17.68l-574.11,574.11V778.57Z" transform="translate(460 -388.66)"/><path class="cls-2" d="M-460,1154.35V1119L-154.2,813.2v242.65L509.32,392.32a12.51,12.51,0,0,1,17.68,0h0A12.51,12.51,0,0,1,527,410l-706.2,706.21V873.55Z" transform="translate(460 -388.66)"/><path class="cls-3" d="M-460,1211.48v-35.36l264.48-264.47V1154.3L403,555.82a12.51,12.51,0,0,1,17.68,0h0a12.51,12.51,0,0,1,0,17.68l-641.15,641.15V972Z" transform="translate(460 -388.66)"/></svg>