<svg id="Calque_1" data-name="Calque 1" xmlns="http://www.w3.org/2000/svg" viewBox="0 0 795.3 638.83"><defs><style>.cls-1{fill:#f5bd6e;}.cls-2{fill:#e7842c;}.cls-3{fill:#cd5327;}</style></defs><path class="cls-1" d="M841.13,2038.69H1460v-24.63H841.13a71.55,71.55,0,1,1,71.54-71.55v52.54h24.64v-52.54a96.18,96.18,0,1,0-96.18,96.18Z" transform="translate(-664.7 -1766.08)"/><path class="cls-2" d="M841.13,2077.73H1460V2053.1H841.13a110.59,110.59,0,1,1,110.58-110.59v52.54h24.63v-52.54c0-74.56-60.65-135.22-135.21-135.22S705.91,1868,705.91,1942.51,766.57,2077.73,841.13,2077.73Z" transform="translate(-664.7 -1766.08)"/><path class="cls-3" d="M841.13,2118.94l618.87,0v-24.6H841.13c-83.7,0-151.8-68.1-151.8-151.8s68.1-151.79,151.8-151.79,151.79,68.09,151.79,151.79v52.54h24.63v-52.54c0-97.28-79.14-176.43-176.42-176.43S664.7,1845.23,664.7,1942.51,743.84,2118.94,841.13,2118.94Z" transform="translate(-664.7 -1766.08)"/><rect class="cls-3" x="328.22" y="367.77" width="24.63" height="271.06"/><rect class="cls-1" x="247.97" y="367.77" width="24.63" height="271.06"/><rect class="cls-2" x="287.01" y="367.77" width="24.63" height="271.06"/></svg>